<?xml version="1.0" encoding="utf-8"?>
<!-- Generator: Adobe Illustrator 24.1.2, SVG Export Plug-In . SVG Version: 6.00 Build 0)  -->
<svg version="1.1" id="Layer_1" xmlns="http://www.w3.org/2000/svg" xmlns:xlink="http://www.w3.org/1999/xlink" x="0px" y="0px"
	 viewBox="0 0 900 485" style="enable-background:new 0 0 900 485;" xml:space="preserve">
<style type="text/css">
	.st0{fill-rule:evenodd;clip-rule:evenodd;fill:#218A3D;}
	.st1{fill-rule:evenodd;clip-rule:evenodd;fill:#231F20;}
</style>
<g>
	
	<g>
		<path class="st0" d="M271,263.9l51.9,51.9l52.6-52.7l3.2-3.4c25.5-28.3,25.7-71.5,0.5-100l-56.3-56.6l-53.2,53.2
			c-14.2,14.2-22,33.1-22,53.1c0,20.1,7.8,39,22,53.1C270,262.9,270.7,263.7,271,263.9L271,263.9z M360.5,247.1l-37.7,37.8
			L307.9,270l67.7-67.7C377.7,218.2,372.7,234.9,360.5,247.1L360.5,247.1z M367.1,179.8l-74.7,74.7l-6.1-6.1l-0.2-0.2
			c0,0-0.8-0.7-1.1-1.1c-2.5-2.5-4.8-5.3-6.7-8.2l74.7-74.7l7.5,7.5C363,174.3,365.2,177,367.1,179.8L367.1,179.8z M285.1,171.7
			l37.7-37.7l14.8,14.8l-67.7,67.7c-0.3-2.3-0.5-4.7-0.5-7C269.4,195.2,275,181.8,285.1,171.7z"/>
		<path class="st0" d="M395.8,257.5c-2.8,11.9-8.5,23.3-17.2,32.9v0.1l-3.2,3.2l-52.6,52.7L271,294.7c-0.3-0.3-1.1-1-1.4-1.4
			c-10-10-16.8-22.3-19.9-35.8h-0.9c-0.8,4.4-1.2,8.8-1.2,13.4c0,20.1,7.8,39,22,53.1c0.4,0.4,1.1,1.1,1.4,1.4l51.9,51.9l52.6-52.7
			l3.2-3.2v-0.1c16-17.8,22-41.5,18-63.7H395.8z"/>
	</g>
</g>
</svg>
